<?xml version="1.0" encoding="utf-8"?>
<!-- Generator: Adobe Illustrator 25.0.1, SVG Export Plug-In . SVG Version: 6.00 Build 0)  -->
<svg version="1.1" id="Layer_1" xmlns="http://www.w3.org/2000/svg" xmlns:xlink="http://www.w3.org/1999/xlink" x="0px" y="0px"
	 viewBox="0 0 1000 1000" style="enable-background:new 0 0 1000 1000;" xml:space="preserve">
<style type="text/css">
	.st0{fill:#010101;}
</style>
<path class="st0" d="M98.1,27.9v-11V5.2v-7.8V-18v-15.7h-1.3l-14,5.7l-8.1,3.3l-7,2.9v6.4v7.2l15.7-5.9V6.1v21.7H72.3H60.1v-8.7
	H47.5H38L52.5,2.8c2.6-2.9,4.7-6.1,5.9-9.7c0.7-2.1,1.1-4.3,1.1-6.8c0-7.5-3.3-13.4-9.1-16.8c-3.5-2-7.8-3.2-12.8-3.2
	c-9.5,0-16,4.1-19.7,10.6c-1.7,3-2.8,6.5-3.4,10.3L28-10.7c0.8-5.6,3.6-9.4,8.8-9.4c4.5,0,7.6,2.6,7.6,6.2c0,2-1.3,4.6-3.6,7.2
	L24.5,12.9l-9.7,11.6v3.3H8.1H-2.6c6.1-6,8.1-16.1,8.1-27.8c0-6.6-0.6-12.7-2.3-17.9c-1.7-5.2-4.3-9.4-8.3-12.2
	c-3.5-2.4-8-3.8-13.8-3.8c-8.2,0-13.9,2.7-17.7,7.3c-5.2,6.2-7,15.7-7,26.5c0,7.4,0.8,14.1,3,19.6c1.3,3.2,3,6,5.3,8.2h-9.4h-8.9
	v-8.7h-22.1l14.5-16.3c4.1-4.6,7-9.8,7-16.5c0-12-8.5-20-21.9-20c-13.8,0-21.3,8.6-23.1,20.9l13.5,2.1c0.4-2.8,1.3-5.2,2.8-6.8
	c1.5-1.7,3.5-2.6,6.1-2.6c4.5,0,7.6,2.6,7.6,6.2c0,2-1.3,4.6-3.6,7.2l-7.7,9.2l-6.5,7.8l-6.5,7.8l-5.4,6.5v3.3h-0.3v5.9h13.4h18.9
	h24.1H-18H9.9h20H69h28H119v-5.9h-11.2H98.1z"/>
<g>
</g>
<g>
</g>
<g>
</g>
<g>
</g>
<g>
</g>
<g>
</g>
</svg>
