<?xml version="1.0" encoding="utf-8"?>
<!-- Generator: Adobe Illustrator 25.0.1, SVG Export Plug-In . SVG Version: 6.00 Build 0)  -->
<svg version="1.1" id="Layer_1" xmlns="http://www.w3.org/2000/svg" xmlns:xlink="http://www.w3.org/1999/xlink" x="0px" y="0px"
	 viewBox="0 0 300 300" style="enable-background:new 0 0 300 300;" xml:space="preserve">
<path d="M94.7-33.7c-18.2,0-24.1,13.3-24.6,30.8H56.6c1.8-3.2,2.8-6.7,2.8-10.8c0-12-8.5-20-21.9-20c-13.8,0-21.3,8.6-23.1,20.9
	l13.5,2.1c0.8-5.6,3.6-9.4,8.8-9.4c4.5,0,7.6,2.6,7.6,6.2c0,2-1.3,4.6-3.6,7.2l-3.1,3.8H5.4C4.8-20.4-0.9-33.7-19-33.7
	c-18.2,0-24.1,13.3-24.6,30.8h-13.5c1.8-3.2,2.8-6.7,2.8-10.8c0-12-8.5-20-21.9-20c-13.8,0-21.3,8.6-23.1,20.9l13.5,2.1
	c0.8-5.6,3.6-9.4,8.8-9.4c4.5,0,7.6,2.6,7.6,6.2c0,2-1.3,4.6-3.6,7.2l-3.1,3.8h-23.2V3H-81l-18,21.6v8.3h45.3V19.1h-22.1l14.4-16.2
	h17.8c0.5,17.4,6.4,30.8,24.7,30.8c18.1,0,23.8-13.3,24.4-30.8h27.3l-18,21.6v8.3H60V19.1H37.9L52.3,2.9H70
	c0.5,17.4,6.4,30.8,24.7,30.8c19.1,0,24.4-14.8,24.4-33.6C119.1-18.8,113.8-33.7,94.7-33.7z"/>
</svg>
